<svg width="240" height="100" viewBox="0 0 240 100" fill="none" xmlns="http://www.w3.org/2000/svg">
<path d="M59.2852 60.0273H52.6758L51.293 64H48.2109L54.6562 46.9375H57.3164L63.7734 64H60.6797L59.2852 60.0273ZM53.5078 57.6367H58.4531L55.9805 50.5586L53.5078 57.6367ZM64.9453 57.5664C64.9453 55.5977 65.4062 54.0273 66.3281 52.8555C67.2578 51.6758 68.4883 51.0859 70.0195 51.0859C71.4648 51.0859 72.6016 51.5898 73.4297 52.5977L73.5586 51.3203H76.125V63.6133C76.125 65.2773 75.6055 66.5898 74.5664 67.5508C73.5352 68.5117 72.1406 68.9922 70.3828 68.9922C69.4531 68.9922 68.543 68.7969 67.6523 68.4062C66.7695 68.0234 66.0977 67.5195 65.6367 66.8945L66.9844 65.1836C67.8594 66.2227 68.9375 66.7422 70.2188 66.7422C71.1641 66.7422 71.9102 66.4844 72.457 65.9688C73.0039 65.4609 73.2773 64.7109 73.2773 63.7188V62.8633C72.457 63.7773 71.3633 64.2344 69.9961 64.2344C68.5117 64.2344 67.2969 63.6445 66.3516 62.4648C65.4141 61.2852 64.9453 59.6523 64.9453 57.5664ZM67.7812 57.8125C67.7812 59.0859 68.0391 60.0898 68.5547 60.8242C69.0781 61.5508 69.8008 61.9141 70.7227 61.9141C71.8711 61.9141 72.7227 61.4219 73.2773 60.4375V54.8594C72.7383 53.8984 71.8945 53.418 70.7461 53.418C69.8086 53.418 69.0781 53.7891 68.5547 54.5312C68.0391 55.2734 67.7812 56.3672 67.7812 57.8125ZM85.6992 53.9219C85.3242 53.8594 84.9375 53.8281 84.5391 53.8281C83.2344 53.8281 82.3555 54.3281 81.9023 55.3281V64H79.0547V51.3203H81.7734L81.8438 52.7383C82.5312 51.6367 83.4844 51.0859 84.7031 51.0859C85.1094 51.0859 85.4453 51.1406 85.7109 51.25L85.6992 53.9219ZM86.543 57.543C86.543 56.3008 86.7891 55.1836 87.2812 54.1914C87.7734 53.1914 88.4648 52.4258 89.3555 51.8945C90.2461 51.3555 91.2695 51.0859 92.4258 51.0859C94.1367 51.0859 95.5234 51.6367 96.5859 52.7383C97.6562 53.8398 98.2344 55.3008 98.3203 57.1211L98.332 57.7891C98.332 59.0391 98.0898 60.1562 97.6055 61.1406C97.1289 62.125 96.4414 62.8867 95.543 63.4258C94.6523 63.9648 93.6211 64.2344 92.4492 64.2344C90.6602 64.2344 89.2266 63.6406 88.1484 62.4531C87.0781 61.2578 86.543 59.668 86.543 57.6836V57.543ZM89.3906 57.7891C89.3906 59.0938 89.6602 60.1172 90.1992 60.8594C90.7383 61.5938 91.4883 61.9609 92.4492 61.9609C93.4102 61.9609 94.1562 61.5859 94.6875 60.8359C95.2266 60.0859 95.4961 58.9883 95.4961 57.543C95.4961 56.2617 95.2188 55.2461 94.6641 54.4961C94.1172 53.7461 93.3711 53.3711 92.4258 53.3711C91.4961 53.3711 90.7578 53.7422 90.2109 54.4844C89.6641 55.2188 89.3906 56.3203 89.3906 57.7891Z" fill="#737380"/>
<path d="M113.496 46.9375V58.3398C113.496 60.1523 112.914 61.5898 111.75 62.6523C110.594 63.707 109.051 64.2344 107.121 64.2344C105.168 64.2344 103.617 63.7148 102.469 62.6758C101.32 61.6289 100.746 60.1797 100.746 58.3281V46.9375H103.699V58.3516C103.699 59.4922 103.988 60.3633 104.566 60.9648C105.145 61.5664 105.996 61.8672 107.121 61.8672C109.402 61.8672 110.543 60.6641 110.543 58.2578V46.9375H113.496ZM123.504 60.5547C123.504 60.0469 123.293 59.6602 122.871 59.3945C122.457 59.1289 121.766 58.8945 120.797 58.6914C119.828 58.4883 119.02 58.2305 118.371 57.918C116.949 57.2305 116.238 56.2344 116.238 54.9297C116.238 53.8359 116.699 52.9219 117.621 52.1875C118.543 51.4531 119.715 51.0859 121.137 51.0859C122.652 51.0859 123.875 51.4609 124.805 52.2109C125.742 52.9609 126.211 53.9336 126.211 55.1289H123.363C123.363 54.582 123.16 54.1289 122.754 53.7695C122.348 53.4023 121.809 53.2188 121.137 53.2188C120.512 53.2188 120 53.3633 119.602 53.6523C119.211 53.9414 119.016 54.3281 119.016 54.8125C119.016 55.25 119.199 55.5898 119.566 55.832C119.934 56.0742 120.676 56.3203 121.793 56.5703C122.91 56.8125 123.785 57.1055 124.418 57.4492C125.059 57.7852 125.531 58.1914 125.836 58.668C126.148 59.1445 126.305 59.7227 126.305 60.4023C126.305 61.543 125.832 62.4688 124.887 63.1797C123.941 63.8828 122.703 64.2344 121.172 64.2344C120.133 64.2344 119.207 64.0469 118.395 63.6719C117.582 63.2969 116.949 62.7812 116.496 62.125C116.043 61.4688 115.816 60.7617 115.816 60.0039H118.582C118.621 60.6758 118.875 61.1953 119.344 61.5625C119.812 61.9219 120.434 62.1016 121.207 62.1016C121.957 62.1016 122.527 61.9609 122.918 61.6797C123.309 61.3906 123.504 61.0156 123.504 60.5547ZM131.824 64H128.977V51.3203H131.824V64ZM128.801 48.0273C128.801 47.5898 128.938 47.2266 129.211 46.9375C129.492 46.6484 129.891 46.5039 130.406 46.5039C130.922 46.5039 131.32 46.6484 131.602 46.9375C131.883 47.2266 132.023 47.5898 132.023 48.0273C132.023 48.457 131.883 48.8164 131.602 49.1055C131.32 49.3867 130.922 49.5273 130.406 49.5273C129.891 49.5273 129.492 49.3867 129.211 49.1055C128.938 48.8164 128.801 48.457 128.801 48.0273ZM137.578 51.3203L137.66 52.7852C138.598 51.6523 139.828 51.0859 141.352 51.0859C143.992 51.0859 145.336 52.5977 145.383 55.6211V64H142.535V55.7852C142.535 54.9805 142.359 54.3867 142.008 54.0039C141.664 53.6133 141.098 53.418 140.309 53.418C139.16 53.418 138.305 53.9375 137.742 54.9766V64H134.895V51.3203H137.578ZM155.871 64C155.746 63.7578 155.637 63.3633 155.543 62.8164C154.637 63.7617 153.527 64.2344 152.215 64.2344C150.941 64.2344 149.902 63.8711 149.098 63.1445C148.293 62.418 147.891 61.5195 147.891 60.4492C147.891 59.0977 148.391 58.0625 149.391 57.3438C150.398 56.6172 151.836 56.2539 153.703 56.2539H155.449V55.4219C155.449 54.7656 155.266 54.2422 154.898 53.8516C154.531 53.4531 153.973 53.2539 153.223 53.2539C152.574 53.2539 152.043 53.418 151.629 53.7461C151.215 54.0664 151.008 54.4766 151.008 54.9766H148.16C148.16 54.2812 148.391 53.6328 148.852 53.0312C149.312 52.4219 149.938 51.9453 150.727 51.6016C151.523 51.2578 152.41 51.0859 153.387 51.0859C154.871 51.0859 156.055 51.4609 156.938 52.2109C157.82 52.9531 158.273 54 158.297 55.3516V61.0703C158.297 62.2109 158.457 63.1211 158.777 63.8008V64H155.871ZM152.742 61.9492C153.305 61.9492 153.832 61.8125 154.324 61.5391C154.824 61.2656 155.199 60.8984 155.449 60.4375V58.0469H153.914C152.859 58.0469 152.066 58.2305 151.535 58.5977C151.004 58.9648 150.738 59.4844 150.738 60.1562C150.738 60.7031 150.918 61.1406 151.277 61.4688C151.645 61.7891 152.133 61.9492 152.742 61.9492Z" fill="#A8A8B3"/>
<path d="M15.5 48.4375V46.5625C15.5 43.9736 13.4014 41.875 10.8125 41.875C10.2947 41.875 9.875 42.2947 9.875 42.8125V44.6875C9.875 47.2764 11.9736 49.375 14.5625 49.375C15.0803 49.375 15.5 48.9553 15.5 48.4375Z" fill="black"/>
<path d="M35.1875 53.125C32.5986 53.125 30.5 55.2861 30.5 57.875V59.75C30.5 60.2678 30.9197 60.6875 31.4375 60.6875C34.0264 60.6875 36.125 58.5264 36.125 55.9375V54.0625C36.125 53.5447 35.7053 53.125 35.1875 53.125Z" fill="black"/>
<path d="M20.1875 59.0478V52.8897C20.5893 52.3855 20.8527 51.8301 20.9965 51.2501H13.7535C13.8972 51.8302 14.1607 52.3856 14.5625 52.8897V59.0478C14.1607 59.5521 13.8971 60.1073 13.7534 60.6875H20.9966C20.8529 60.1073 20.5893 59.552 20.1875 59.0478Z" fill="black"/>
<path d="M17.375 46.5625V48.4375C17.375 48.7677 17.3074 49.0803 17.2023 49.375H20.9966C20.8529 48.7948 20.5893 48.2395 20.1875 47.7353V40.9375C20.1875 40.4193 19.7682 40 19.25 40H15.5C14.9818 40 14.5625 40.4193 14.5625 40.9375V41.1914C16.2581 42.3792 17.375 44.3401 17.375 46.5625Z" fill="black"/>
<path d="M15.5 72H19.25C19.7682 72 20.1875 71.5807 20.1875 71.0625V64.2022C20.5893 63.6979 20.8527 63.1426 20.9965 62.5625H13.7535C13.8972 63.1426 14.1607 63.698 14.5625 64.2022V71.0625C14.5625 71.5807 14.9818 72 15.5 72Z" fill="black"/>
<path d="M25.0034 60.6875H28.7977C28.6926 60.3928 28.625 60.0802 28.625 59.75V57.875C28.625 55.4592 29.9523 53.3049 31.9016 52.1656C32.0564 51.8708 32.1686 51.5642 32.2465 51.25H25.0035C25.1473 51.8301 25.4107 52.3855 25.8125 52.8897V59.0478C25.4107 59.552 25.1471 60.1073 25.0034 60.6875V60.6875Z" fill="black"/>
<path d="M25.8125 64.2022V71.0625C25.8125 71.5807 26.2318 72 26.75 72H30.5C31.0182 72 31.4375 71.5807 31.4375 71.0625V64.2022C31.8393 63.6979 32.1028 63.1426 32.2465 62.5625H25.0035C25.1473 63.1426 25.4107 63.698 25.8125 64.2022V64.2022Z" fill="black"/>
<path d="M31.4375 47.7353V40.9375C31.4375 40.4193 31.0182 40 30.5 40H26.75C26.2318 40 25.8125 40.4193 25.8125 40.9375V47.7353C25.4148 48.2351 25.1496 48.7919 25.0043 49.375H32.2466C32.1029 48.7948 31.8393 48.2395 31.4375 47.7353V47.7353Z" fill="black"/>
</svg>
